<?xml version="1.0" encoding="UTF-8"?>
<svg version="1.1" xmlns="http://www.w3.org/2000/svg" width="50" height="75">
<path d="M0 0 C16.5 0 33 0 50 0 C50 24.75 50 49.5 50 75 C33.5 75 17 75 0 75 C0 50.25 0 25.5 0 0 Z " fill="#01FEF8" transform="translate(0,0)"/>
<path d="M0 0 C8 0 8 0 9.95703125 1.20703125 C11.25023431 3.43017808 11.50204009 5.1281532 11.6875 7.6875 C11.78611328 8.89986328 11.78611328 8.89986328 11.88671875 10.13671875 C11.92410156 10.75160156 11.96148437 11.36648437 12 12 C11.01 11.67 10.02 11.34 9 11 C8.5359375 10.01 8.5359375 10.01 8.0625 9 C7.17972859 6.79394438 7.17972859 6.79394438 4.875 6.25 C4.25625 6.1675 3.6375 6.085 3 6 C3.33 8.64 3.66 11.28 4 14 C9.94 14 15.88 14 22 14 C21.67 17.3 21.34 20.6 21 24 C15.39 24 9.78 24 4 24 C3.3503125 25.918125 3.3503125 25.918125 2.6875 27.875 C1.52206739 31.31580104 1.20148213 31.86567858 -2 34 C-5.12026907 34.32502803 -7.14747535 34.51151479 -9.875 32.875 C-11.52149743 30.13083761 -11.39964378 28.1305429 -11 25 C-8 23 -8 23 0 23 C0 15.41 0 7.82 0 0 Z " fill="#F0FFFE" transform="translate(23,21)"/>
<path d="M0 0 C0.99 0.33 1.98 0.66 3 1 C2.34 1 1.68 1 1 1 C1.33 3.64 1.66 6.28 2 9 C7.94 9 13.88 9 20 9 C19.67 12.3 19.34 15.6 19 19 C13.39 19 7.78 19 2 19 C1.34 20.32 0.68 21.64 0 23 C0 15.41 0 7.82 0 0 Z " fill="#7EFFFC" transform="translate(25,26)"/>
<path d="M0 0 C4.62 0 9.24 0 14 0 C14 7.92 14 15.84 14 24 C10.75119835 20.75119835 9.39113913 19.26006723 7.5625 15.375 C7.14742187 14.50875 6.73234375 13.6425 6.3046875 12.75 C5.87414063 11.8425 5.44359375 10.935 5 10 C4.06658273 8.12296418 3.1292541 6.24786691 2.1875 4.375 C1.465625 2.93125 0.74375 1.4875 0 0 Z " fill="#00C0BC" transform="translate(36,0)"/>
<path d="M0 0 C3.22097957 0.15051306 6.41718343 0.40661949 9.62890625 0.68359375 C11.41680449 0.82483427 13.20848648 0.91628441 15 1 C15.33 0.67 15.66 0.34 16 0 C18.33944736 0.28730055 20.6739143 0.61936779 23 1 C23 1.99 23 2.98 23 4 C20.54724859 5.2263757 18.9494219 5.11415314 16.2109375 5.09765625 C15.26992188 5.09443359 14.32890625 5.09121094 13.359375 5.08789062 C12.37453125 5.07951172 11.3896875 5.07113281 10.375 5.0625 C9.38242187 5.05798828 8.38984375 5.05347656 7.3671875 5.04882812 C4.9113984 5.03702145 2.45572896 5.020554 0 5 C-0.5625 3.0625 -0.5625 3.0625 -1 1 C-0.67 0.67 -0.34 0.34 0 0 Z " fill="#4FFFFB" transform="translate(8,57)"/>
<path d="M0 0 C5.94 0 11.88 0 18 0 C17.67 1.32 17.34 2.64 17 4 C11.39 4 5.78 4 0 4 C-0.33 4.66 -0.66 5.32 -1 6 C-0.67 4.02 -0.34 2.04 0 0 Z " fill="#6EFFFB" transform="translate(27,35)"/>
<path d="M0 0 C0 0.99 0 1.98 0 3 C-4.95 3 -9.9 3 -15 3 C-15 2.34 -15 1.68 -15 1 C-9.94997778 -0.03590199 -5.12583611 -0.10251672 0 0 Z " fill="#92FFFD" transform="translate(28,58)"/>
<path d="M0 0 C2.31 0.33 4.62 0.66 7 1 C7 1.99 7 2.98 7 4 C5.68 4.33 4.36 4.66 3 5 C3 4.01 3 3.02 3 2 C2.01 1.34 1.02 0.68 0 0 Z " fill="#65FFFB" transform="translate(24,57)"/>
</svg>
