<?xml version="1.0" encoding="UTF-8"?>
<svg version="1.1" xmlns="http://www.w3.org/2000/svg" width="278" height="221">
<path d="M0 0 C91.74 0 183.48 0 278 0 C278 72.93 278 145.86 278 221 C186.26 221 94.52 221 0 221 C0 148.07 0 75.14 0 0 Z " fill="#EFEFEF" transform="translate(0,0)"/>
<path d="M0 0 C16.5 0 33 0 50 0 C50 24.75 50 49.5 50 75 C33.5 75 17 75 0 75 C0 50.25 0 25.5 0 0 Z " fill="#04FEF8" transform="translate(115,30)"/>
<path d="M0 0 C0 8.58 0 17.16 0 26 C-30.03 26 -60.06 26 -91 26 C-90.67 17.75 -90.34 9.5 -90 1 C-78.41311235 0.86955688 -66.82622418 0.73916078 -55.23933506 0.60884857 C-49.8596703 0.54834415 -44.48000579 0.48781872 -39.1003418 0.42724609 C-33.9132537 0.36884254 -28.72616499 0.31049313 -23.53907585 0.25218201 C-21.55543941 0.22987312 -19.57180319 0.20754439 -17.58816719 0.18519592 C-14.8199278 0.15401111 -12.05168763 0.12289547 -9.28344727 0.09179688 C-8.04051659 0.07777077 -8.04051659 0.07777077 -6.7724762 0.0634613 C-1.11405216 0 -1.11405216 0 0 0 Z " fill="#DFDFDF" transform="translate(185,127)"/>
<path d="M0 0 C8 0 8 0 9.95703125 1.20703125 C11.25023431 3.43017808 11.50204009 5.1281532 11.6875 7.6875 C11.78611328 8.89986328 11.78611328 8.89986328 11.88671875 10.13671875 C11.92410156 10.75160156 11.96148437 11.36648437 12 12 C11.01 11.67 10.02 11.34 9 11 C8.71125 10.360625 8.4225 9.72125 8.125 9.0625 C6.60752088 6.28045494 4.90654637 6.04205762 2 5 C2.02094727 5.73637695 2.04189453 6.47275391 2.06347656 7.23144531 C2.14667144 10.57082442 2.19867157 13.90998549 2.25 17.25 C2.30027344 18.98830078 2.30027344 18.98830078 2.3515625 20.76171875 C2.36445313 21.87675781 2.37734375 22.99179688 2.390625 24.140625 C2.41157227 25.16704102 2.43251953 26.19345703 2.45410156 27.25097656 C1.87977876 30.72779097 0.7646533 31.88072318 -2 34 C-5.20195936 34.45742277 -7.07553259 34.55468045 -9.875 32.875 C-11.52149743 30.13083761 -11.39964378 28.1305429 -11 25 C-8 23 -8 23 0 23 C0 15.41 0 7.82 0 0 Z " fill="#F0FFFE" transform="translate(138,51)"/>
<path d="M0 0 C0.33 0 0.66 0 1 0 C1 8.58 1 17.16 1 26 C-29.03 26 -59.06 26 -90 26 C-89.67 25.34 -89.34 24.68 -89 24 C-59.96 24 -30.92 24 -1 24 C-1 16.41 -1 8.82 -1 1 C-0.67 0.67 -0.34 0.34 0 0 Z " fill="#848484" transform="translate(184,127)"/>
<path d="M0 0 C4.62 0 9.24 0 14 0 C14 5.28 14 10.56 14 16 C9.38 16 4.76 16 0 16 C0 10.72 0 5.44 0 0 Z " fill="#0DFFF9" transform="translate(0,4)"/>
<path d="M0 0 C4.62 0 9.24 0 14 0 C14 7.92 14 15.84 14 24 C10.75119835 20.75119835 9.39113913 19.26006723 7.5625 15.375 C7.14742187 14.50875 6.73234375 13.6425 6.3046875 12.75 C5.87414062 11.8425 5.44359375 10.935 5 10 C4.06658273 8.12296418 3.1292541 6.24786691 2.1875 4.375 C1.465625 2.93125 0.74375 1.4875 0 0 Z " fill="#00C0BC" transform="translate(151,30)"/>
<path d="M0 0 C0.99 0.33 1.98 0.66 3 1 C2.34 1 1.68 1 1 1 C1 3.64 1 6.28 1 9 C7.27 9 13.54 9 20 9 C19.67 10.98 19.34 12.96 19 15 C13.06 15 7.12 15 1 15 C1 17.64 1 20.28 1 23 C0.67 23 0.34 23 0 23 C0 15.41 0 7.82 0 0 Z " fill="#79FFFC" transform="translate(140,56)"/>
<path d="M0 0 C4.62 0 9.24 0 14 0 C14 2.64 14 5.28 14 8 C11.5625 7.625 11.5625 7.625 9 7 C8.67 6.34 8.34 5.68 8 5 C7.01 4.67 6.02 4.34 5 4 C5.061875 4.763125 5.12375 5.52625 5.1875 6.3125 C5 9 5 9 3.625 10.8125 C2 12 2 12 0 12 C0 8.04 0 4.08 0 0 Z " fill="#01F7F1" transform="translate(0,4)"/>
<path d="M0 0 C3.3 0 6.6 0 10 0 C10 3.3 10 6.6 10 10 C6.7 10 3.4 10 0 10 C0 6.7 0 3.4 0 0 Z " fill="#9D9D9D" transform="translate(216,7)"/>
<path d="M0 0 C3.22097957 0.15051306 6.41718343 0.40661949 9.62890625 0.68359375 C11.41680449 0.82483427 13.20848648 0.91628441 15 1 C15.33 0.67 15.66 0.34 16 0 C18.33944736 0.28730055 20.6739143 0.61936779 23 1 C23 1.99 23 2.98 23 4 C20.54724859 5.2263757 18.9494219 5.11415314 16.2109375 5.09765625 C15.26992187 5.09443359 14.32890625 5.09121094 13.359375 5.08789062 C12.37453125 5.07951172 11.3896875 5.07113281 10.375 5.0625 C9.38242188 5.05798828 8.38984375 5.05347656 7.3671875 5.04882812 C4.9113984 5.03702145 2.45572896 5.020554 0 5 C-0.5625 3.0625 -0.5625 3.0625 -1 1 C-0.67 0.67 -0.34 0.34 0 0 Z " fill="#4FFFFB" transform="translate(123,87)"/>
<path d="M0 0 C0.99 0.495 0.99 0.495 2 1 C1.67 1.66 1.34 2.32 1 3 C2.65 3 4.3 3 6 3 C5.67 2.01 5.34 1.02 5 0 C6.65 0 8.3 0 10 0 C10.33 0.66 10.66 1.32 11 2 C13.01669827 3.13350534 13.01669827 3.13350534 15 4 C14.67 5.32 14.34 6.64 14 8 C9.71 8 5.42 8 1 8 C-0.35439668 5.29120665 -0.06501451 2.99066732 0 0 Z " fill="#7F787C" transform="translate(155,183)"/>
<path d="M0 0 C3.63 0 7.26 0 11 0 C11 2.97 11 5.94 11 9 C9.35 9 7.7 9 6 9 C5.67 7.35 5.34 5.7 5 4 C3.68 4.33 2.36 4.66 1 5 C0.67 6.32 0.34 7.64 0 9 C0 6.03 0 3.06 0 0 Z " fill="#908394" transform="translate(162,135)"/>
<path d="M0 0 C3.53571429 0.53571429 3.53571429 0.53571429 5 2 C5.27314815 7.73611111 5.27314815 7.73611111 5 10 C4.34 10.66 3.68 11.32 3 12 C1.68 12 0.36 12 -1 12 C-2.11445498 9.77109005 -2.16480286 8.46944894 -2.1875 6 C-2.20167969 5.29875 -2.21585938 4.5975 -2.23046875 3.875 C-2 2 -2 2 0 0 Z " fill="#B3A9A9" transform="translate(182,179)"/>
<path d="M0 0 C2.625 0.375 2.625 0.375 5 1 C5 3.31 5 5.62 5 8 C2.625 8.625 2.625 8.625 0 9 C-2 7 -2 7 -2.25 4.5 C-2 2 -2 2 0 0 Z " fill="#3E4157" transform="translate(144,182)"/>
<path d="M0 0 C2.625 0.375 2.625 0.375 5 1 C5 3.31 5 5.62 5 8 C2.625 8.625 2.625 8.625 0 9 C-2 7 -2 7 -2.25 4.5 C-2 2 -2 2 0 0 Z " fill="#3E4157" transform="translate(104,182)"/>
<path d="M0 0 C1.67542976 0.28604898 3.34385343 0.61781233 5 1 C5.33 3.64 5.66 6.28 6 9 C3.69 9 1.38 9 -1 9 C-1.09765625 2.84765625 -1.09765625 2.84765625 -1 1 C-0.67 0.67 -0.34 0.34 0 0 Z " fill="#776A64" transform="translate(116,182)"/>
<path d="M0 0 C2.97 0.495 2.97 0.495 6 1 C6 3.31 6 5.62 6 8 C4.02 8.33 2.04 8.66 0 9 C0 6.03 0 3.06 0 0 Z " fill="#8F7F8A" transform="translate(148,135)"/>
<path d="M0 0 C0.66 0 1.32 0 2 0 C2 2.97 2 5.94 2 9 C0.02 9 -1.96 9 -4 9 C-4.33 7.35 -4.66 5.7 -5 4 C-4.0409375 3.8453125 -4.0409375 3.8453125 -3.0625 3.6875 C-2.381875 3.460625 -1.70125 3.23375 -1 3 C-0.67 2.01 -0.34 1.02 0 0 Z " fill="#806D76" transform="translate(111,135)"/>
<path d="M0 0 C0 0.99 0 1.98 0 3 C-4.95 3 -9.9 3 -15 3 C-15 2.34 -15 1.68 -15 1 C-9.94997778 -0.03590199 -5.12583611 -0.10251672 0 0 Z " fill="#92FFFD" transform="translate(143,88)"/>
<path d="M0 0 C0.33 0 0.66 0 1 0 C1 2.97 1 5.94 1 9 C-0.65 9 -2.3 9 -4 9 C-4.33 7.35 -4.66 5.7 -5 4 C-4.0409375 3.8453125 -4.0409375 3.8453125 -3.0625 3.6875 C-2.381875 3.460625 -1.70125 3.23375 -1 3 C-0.67 2.01 -0.34 1.02 0 0 Z " fill="#777777" transform="translate(48,8)"/>
<path d="M0 0 C0.66 0 1.32 0 2 0 C2 3.96 2 7.92 2 12 C-1 11 -1 11 -2.75 8.625 C-4 6 -4 6 -3 3 C-2.01 4.485 -2.01 4.485 -1 6 C-0.67 4.02 -0.34 2.04 0 0 Z " fill="#4B4449" transform="translate(138,179)"/>
<path d="M0 0 C1.32 0.33 2.64 0.66 4 1 C4 1.66 4 2.32 4 3 C4.99 3 5.98 3 7 3 C7 3.99 7 4.98 7 6 C5.35 6 3.7 6 2 6 C1.67 4.68 1.34 3.36 1 2 C1 3.65 1 5.3 1 7 C-0.32 7 -1.64 7 -3 7 C-2.67 6.34 -2.34 5.68 -2 5 C-1.34 5 -0.68 5 0 5 C0 3.35 0 1.7 0 0 Z " fill="#BAFFFD" transform="translate(5,8)"/>
<path d="M0 0 C0 2.83967231 -0.40267181 5.23735711 -1 8 C-3.76264289 8.59732819 -6.16032769 9 -9 9 C-8.34 8.34 -7.68 7.68 -7 7 C-6.83312552 4.41645782 -6.83312552 4.41645782 -7 2 C-6.21625 2.04125 -5.4325 2.0825 -4.625 2.125 C-1.83883881 2.28728734 -1.83883881 2.28728734 0 0 Z " fill="#676868" transform="translate(271,7)"/>
<path d="M0 0 C0.99 0.33 1.98 0.66 3 1 C2.34 1.66 1.68 2.32 1 3 C0.54188325 4.97235333 0.54188325 4.97235333 0.375 7.125 C0.25125 8.40375 0.1275 9.6825 0 11 C0.99 11.33 1.98 11.66 3 12 C1.68 12 0.36 12 -1 12 C-2.11445498 9.77109005 -2.16480286 8.46944894 -2.1875 6 C-2.20167969 5.29875 -2.21585938 4.5975 -2.23046875 3.875 C-2 2 -2 2 0 0 Z " fill="#4D556E" transform="translate(182,179)"/>
<path d="M0 0 C1.98 0.495 1.98 0.495 4 1 C4 2.65 4 4.3 4 6 C2.35 5.67 0.7 5.34 -1 5 C-0.67 3.35 -0.34 1.7 0 0 Z " fill="#95939C" transform="translate(122,138)"/>
<path d="M0 0 C0.99 0.33 1.98 0.66 3 1 C2.67 4.63 2.34 8.26 2 12 C1.34 12 0.68 12 0 12 C0 8.04 0 4.08 0 0 Z " fill="#40404A" transform="translate(131,179)"/>
<path d="M0 0 C0.66 0.33 1.32 0.66 2 1 C2 2.65 2 4.3 2 6 C0.68 6 -0.64 6 -2 6 C-1.125 1.125 -1.125 1.125 0 0 Z " fill="#EFE5CF" transform="translate(146,183)"/>
<path d="M0 0 C0.66 0.33 1.32 0.66 2 1 C2 2.65 2 4.3 2 6 C0.68 6 -0.64 6 -2 6 C-1.125 1.125 -1.125 1.125 0 0 Z " fill="#EFE5CF" transform="translate(106,183)"/>
<path d="M0 0 C2.31 0.33 4.62 0.66 7 1 C7 1.99 7 2.98 7 4 C5.68 4.33 4.36 4.66 3 5 C3 4.01 3 3.02 3 2 C2.01 1.34 1.02 0.68 0 0 Z " fill="#64FFFB" transform="translate(139,87)"/>
</svg>
